<mxfile host="app.diagrams.net" modified="2023-09-13T02:44:50.853Z" agent="Mozilla/5.0 (Windows NT 10.0; Win64; x64) AppleWebKit/537.36 (KHTML, like Gecko) Chrome/116.0.0.0 Safari/537.36" etag="brqB0vAMFohn5O6LoEi1" version="21.7.4" type="github">
  <diagram name="第 1 页" id="LrmsOc0QVK0TJMhPnWcB">
    <mxGraphModel dx="1306" dy="822" grid="1" gridSize="10" guides="1" tooltips="1" connect="1" arrows="1" fold="1" page="1" pageScale="1" pageWidth="827" pageHeight="1169" math="0" shadow="0">
      <root>
        <mxCell id="0" />
        <mxCell id="1" parent="0" />
        <mxCell id="cELvKbfnfKgfnRFfIqf9-1" value="" style="shape=image;verticalLabelPosition=bottom;labelBackgroundColor=default;verticalAlign=top;aspect=fixed;imageAspect=0;image=https://cdn3.iconfinder.com/data/icons/cyber-crimes-13/512/spyware_cyber_eye_cyber_crime_cyber_security_hacking_hack_spy-64.png;" parent="1" vertex="1">
          <mxGeometry x="180" y="480" width="64" height="64" as="geometry" />
        </mxCell>
        <mxCell id="cELvKbfnfKgfnRFfIqf9-4" value="" style="edgeStyle=orthogonalEdgeStyle;rounded=0;orthogonalLoop=1;jettySize=auto;html=1;" parent="1" source="cELvKbfnfKgfnRFfIqf9-3" target="cELvKbfnfKgfnRFfIqf9-1" edge="1">
          <mxGeometry relative="1" as="geometry">
            <Array as="points">
              <mxPoint x="430" y="312" />
              <mxPoint x="430" y="312" />
            </Array>
          </mxGeometry>
        </mxCell>
        <mxCell id="cELvKbfnfKgfnRFfIqf9-3" value="" style="shape=image;verticalLabelPosition=bottom;labelBackgroundColor=default;verticalAlign=top;aspect=fixed;imageAspect=0;image=https://cdn4.iconfinder.com/data/icons/fintech-91/512/Biometric_payment-512.png;" parent="1" vertex="1">
          <mxGeometry x="440" y="150" width="80" height="80" as="geometry" />
        </mxCell>
        <mxCell id="SU2RigkY294YSMeUATf8-1" value="Horizontal Container" style="swimlane;horizontal=0;whiteSpace=wrap;html=1;" vertex="1" parent="1">
          <mxGeometry x="70" y="70" width="200" height="200" as="geometry" />
        </mxCell>
        <mxCell id="SU2RigkY294YSMeUATf8-2" value="Vertical Container" style="swimlane;whiteSpace=wrap;html=1;" vertex="1" parent="1">
          <mxGeometry x="400" y="380" width="200" height="200" as="geometry" />
        </mxCell>
        <mxCell id="SU2RigkY294YSMeUATf8-3" value="" style="swimlane;startSize=0;" vertex="1" parent="1">
          <mxGeometry x="310" y="220" width="200" height="200" as="geometry" />
        </mxCell>
      </root>
    </mxGraphModel>
  </diagram>
</mxfile>
